<svg width="124" height="61" viewBox="0 0 124 61" fill="none" xmlns="http://www.w3.org/2000/svg">
<path d="M36.4061 16.7871L18.3329 41.5749C19.5467 41.5749 22.831 41.621 24.0448 41.621C28.2241 41.621 32.8529 41.5749 35.5956 41.4865C35.3771 43.3509 35.2565 45.2255 35.2345 47.1025C32.4957 46.9258 27.1908 46.8797 22.7849 46.8797C17.5262 46.8797 12.7131 46.9258 9.34042 47.1025L8.71429 44.2638L26.7414 19.6297C25.3931 19.5874 22.9654 19.5874 21.4366 19.5874C17.1651 19.5874 13.4775 19.6297 10.2431 19.6757C10.4659 18.1008 10.6042 15.9459 10.6926 14.1021C15.1868 14.2365 17.1651 14.3248 23.1421 14.3248C28.9041 14.3248 32.584 14.2365 35.73 14.1021L36.4061 16.7871Z" fill="#482E4D"/>
<path d="M54.1525 30.2408L40.3239 30.6442C40.6389 34.5584 42.7939 36.625 46.8848 36.625C50.5725 36.625 53.3151 35.2307 55.6967 33.6135L55.5162 39.0527C52.7423 40.8824 49.4895 41.8513 46.1665 41.8377C37.8502 41.8377 33.8053 36.3101 33.8053 29.7914C33.8053 22.2856 38.8412 16.6658 46.2549 16.6658C53.5533 16.6658 56.6263 21.8784 56.6263 28.3548L54.1525 30.2408ZM50.6455 26.7338C50.2882 23.365 48.9399 21.5211 45.9706 21.5211C42.8707 21.5211 40.8464 23.8566 40.3969 27.0027L50.6455 26.7338Z" fill="#482E4D"/>
<path d="M74.4297 14.6164C73.7034 14.3826 72.9456 14.2609 72.1826 14.2553C69.4399 14.2553 68.0916 15.9646 68.0916 19.3795V21.2694H74.0687C73.9342 22.3488 73.892 24.4616 73.892 26.2631H68.0916V40.1532C68.065 41.7748 68.1407 43.3965 68.3183 45.0086H61.1236C61.3502 42.8498 61.4385 39.7498 61.4385 36.8727V26.2593H57.2131L58.427 21.2656H61.4385V19.7291C61.4385 12.9877 64.8112 8.71615 71.0149 8.71615C72.0169 8.69598 73.0164 8.82545 73.9803 9.10028L74.4297 14.6164Z" fill="#482E4D"/>
<path d="M89.1326 21.8932C88.4056 21.6626 87.6482 21.5422 86.8855 21.536C84.1428 21.536 82.7945 23.2415 82.7945 26.6603V28.5463H88.7715C88.6371 29.6257 88.5949 31.7384 88.5949 33.54H82.7945V47.4301C82.7686 49.0516 82.8431 50.6731 83.0173 52.2854H75.8341C76.0608 50.1266 76.1491 47.0267 76.1491 44.1496V33.5361H71.9237L73.1376 28.5425H76.1491V27.006C76.1491 20.2645 79.5218 15.993 85.7254 15.993C86.7288 15.9782 87.7286 16.1155 88.6909 16.4002L89.1326 21.8932Z" fill="#482E4D"/>
<path d="M102.658 44.3996C95.421 44.3996 90.8345 38.9604 90.8345 32.3956C90.8345 24.8898 95.7783 19.1816 103.288 19.1816C110.525 19.1816 115.154 24.6209 115.154 31.1818C115.154 38.6877 110.164 44.3996 102.658 44.3996ZM103.107 24.3482C99.6003 24.3482 97.3993 27.2714 97.3993 31.6466C97.3993 36.863 99.6003 39.2446 102.881 39.2446C106.476 39.2446 108.589 36.3675 108.589 31.9155C108.589 26.6875 106.18 24.3482 103.107 24.3482Z" fill="#482E4D"/>
</svg>
