<svg width="400" height="736" viewBox="0 0 400 736" fill="none" xmlns="http://www.w3.org/2000/svg">
<g filter="url(#filter0_bd_1_487)">
<rect x="7.74365" y="5" width="384.513" height="720" rx="26.8785" fill="url(#paint0_linear_1_487)" fill-opacity="0.4"/>
<rect width="335.981" height="419.977" transform="translate(31.9991 107.714)" fill="white" fill-opacity="0.36"/>
<path fill-rule="evenodd" clip-rule="evenodd" d="M169.59 317.942C169.59 301.162 183.209 287.544 199.989 287.544C216.769 287.544 230.387 301.162 230.387 317.942C230.387 334.722 216.769 348.341 199.989 348.341C183.209 348.341 169.59 334.722 169.59 317.942ZM196.341 306.087C195.338 305.327 193.909 306.057 193.909 307.303V328.582C193.909 329.828 195.338 330.558 196.341 329.798L210.537 319.158C211.358 318.55 211.358 317.334 210.537 316.726L196.341 306.087Z" fill="#FFFFFA"/>
<path d="M355.361 79.1932C355.361 80.2674 354.686 80.9625 353.636 80.9625C352.587 80.9625 351.882 80.2516 351.882 79.1932C351.882 78.1348 352.572 77.4397 353.636 77.4397C354.701 77.4397 355.361 78.119 355.361 79.1932Z" fill="white" fill-opacity="0.36"/>
<path d="M361.645 79.1932C361.645 80.2674 360.97 80.9625 359.921 80.9625C358.871 80.9625 358.166 80.2516 358.166 79.1932C358.166 78.1348 358.856 77.4397 359.921 77.4397C360.985 77.4397 361.645 78.119 361.645 79.1932Z" fill="white" fill-opacity="0.36"/>
<path d="M367.945 79.1932C367.945 80.2674 367.27 80.9625 366.221 80.9625C365.171 80.9625 364.466 80.2516 364.466 79.1932C364.466 78.1348 365.156 77.4397 366.221 77.4397C367.285 77.4397 367.945 78.119 367.945 79.1932Z" fill="white" fill-opacity="0.36"/>
<g filter="url(#filter1_b_1_487)">
<path d="M73.9795 75.0761C73.9795 80.0144 72.296 84.5412 69.4527 88.1327C65.5806 93.0336 59.5948 96.1762 52.8607 96.1762C46.1266 96.1762 40.1407 93.0336 36.2686 88.1327C33.4254 84.5412 31.7418 79.9957 31.7418 75.0761C31.7418 63.4224 41.1883 53.9573 52.8607 53.9573C64.5331 53.9573 73.9795 63.4037 73.9795 75.0761Z" fill="white" fill-opacity="0.18"/>
</g>
<rect x="85.4988" y="67.3871" width="91.1949" height="5.75968" fill="white" fill-opacity="0.18"/>
<rect x="85.4988" y="76.9866" width="61.4366" height="5.75968" fill="white" fill-opacity="0.18"/>
<line x1="144.056" y1="697.162" x2="255.41" y2="697.161" stroke="white" stroke-opacity="0.36" stroke-width="3.83979" stroke-linecap="round"/>
<g filter="url(#filter2_b_1_487)">
<path d="M366.193 557.737H348.369C347.126 557.737 346.114 558.749 346.114 559.992V581.343C346.114 581.993 346.476 582.557 347.068 582.832C347.285 582.933 347.531 582.991 347.762 582.991C348.138 582.991 348.514 582.86 348.818 582.6L357.274 575.344L365.73 582.6C366.222 583.019 366.887 583.121 367.479 582.846C368.072 582.571 368.433 582.008 368.433 581.357V560.007C368.433 558.763 367.422 557.751 366.178 557.751L366.193 557.737ZM367.118 581.343C367.118 581.516 366.988 581.603 366.945 581.617C366.887 581.646 366.757 581.69 366.612 581.574L357.722 573.956C357.476 573.739 357.1 573.739 356.855 573.956L347.965 581.574C347.835 581.69 347.69 581.646 347.632 581.617C347.574 581.588 347.459 581.516 347.459 581.343V559.992C347.459 559.486 347.878 559.067 348.384 559.067H366.207C366.713 559.067 367.132 559.486 367.132 559.992V581.343H367.118Z" fill="white" fill-opacity="0.18"/>
<path d="M56.9511 570.255C56.5029 571.643 55.6356 572.886 54.4358 573.869L44.9676 581.516C44.8519 581.617 44.7074 581.675 44.5484 581.675C44.3893 581.675 44.2593 581.617 44.1292 581.516L34.6754 573.869C33.4756 572.886 32.5938 571.643 32.1601 570.255C31.2061 567.292 32.0589 563.996 34.3284 561.857C36.4244 559.891 39.33 559.356 42.0909 560.44C43.1606 560.859 44.028 561.813 44.5628 562.536C45.0977 561.813 45.965 560.859 47.0347 560.44C49.7957 559.356 52.7012 559.891 54.7972 561.857C57.0667 563.982 57.9196 567.278 56.9655 570.255H56.9511Z" fill="white" fill-opacity="0.18"/>
<path d="M98.7994 567.032C97.8019 562.753 94.2315 559.342 89.9238 558.532C86.1365 557.824 82.4214 558.951 79.7183 561.626C77.0151 564.3 75.8587 568.015 76.5381 571.802C77.3331 576.283 80.8892 579.912 85.3703 580.837C87.6254 581.299 89.9382 581.097 92.0487 580.215C92.2945 580.114 92.6558 580.027 93.0461 580.143L96.2263 581.111C96.3853 581.155 96.5588 581.184 96.7323 581.184C97.137 581.184 97.5418 581.039 97.8598 580.75C98.3079 580.345 98.5103 579.767 98.3946 579.174L97.7441 575.72C97.6719 575.344 97.7875 575.011 97.9031 574.794C99.1318 572.38 99.4499 569.677 98.8138 566.989L98.7994 567.032ZM96.7033 574.231C96.4142 574.809 96.313 575.416 96.4287 576.009L97.0792 579.464C97.1081 579.637 97.0069 579.753 96.9636 579.796C96.9202 579.839 96.8045 579.926 96.6166 579.868L93.4364 578.9C93.1907 578.827 92.9305 578.784 92.6703 578.784C92.2945 578.784 91.9186 578.856 91.5572 579.015C89.6925 579.782 87.6543 579.969 85.6594 579.55C81.7131 578.726 78.5763 575.532 77.868 571.585C77.2609 568.232 78.2872 564.95 80.6723 562.594C83.0575 560.223 86.3389 559.24 89.6925 559.862C93.4943 560.57 96.6455 563.577 97.5273 567.35C98.0766 569.735 97.802 572.12 96.7178 574.245L96.7033 574.231Z" fill="white" fill-opacity="0.18"/>
<path d="M144.695 559.876C144.58 559.645 144.348 559.515 144.103 559.515H118.849C118.574 559.515 118.329 559.689 118.227 559.949C118.126 560.209 118.213 560.498 118.415 560.686L127.291 568.275V581.718C127.305 582.008 127.493 582.253 127.768 582.355C127.84 582.383 127.913 582.383 127.97 582.383C128.173 582.383 128.375 582.282 128.505 582.123L144.637 560.57C144.782 560.368 144.811 560.093 144.695 559.876ZM120.641 560.845H141.197L128.057 567.191L120.656 560.845H120.641ZM128.606 568.391L141.934 561.958L128.621 579.724V568.376L128.606 568.391Z" fill="white" fill-opacity="0.18"/>
<rect x="31.7418" y="591.527" width="59.5167" height="5.75968" fill="white" fill-opacity="0.18"/>
<rect x="31.7418" y="604.007" width="73.9159" height="5.75968" fill="white" fill-opacity="0.18"/>
<rect x="110.457" y="604.007" width="96.9546" height="5.75968" fill="white" fill-opacity="0.18"/>
</g>
<rect x="7.74365" y="5" width="384.513" height="720" rx="26.8785" stroke="url(#paint1_linear_1_487)" stroke-opacity="0.8" stroke-width="3.83979"/>
</g>
<defs>
<filter id="filter0_bd_1_487" x="-5.77089" y="-8.51457" width="411.542" height="747.029" filterUnits="userSpaceOnUse" color-interpolation-filters="sRGB">
<feFlood flood-opacity="0" result="BackgroundImageFix"/>
<feGaussianBlur in="BackgroundImageFix" stdDeviation="5.79732"/>
<feComposite in2="SourceAlpha" operator="in" result="effect1_backgroundBlur_1_487"/>
<feColorMatrix in="SourceAlpha" type="matrix" values="0 0 0 0 0 0 0 0 0 0 0 0 0 0 0 0 0 0 127 0" result="hardAlpha"/>
<feOffset dy="2.89866"/>
<feGaussianBlur stdDeviation="2.89866"/>
<feComposite in2="hardAlpha" operator="out"/>
<feColorMatrix type="matrix" values="0 0 0 0 0 0 0 0 0 0 0 0 0 0 0 0 0 0 0.1 0"/>
<feBlend mode="normal" in2="effect1_backgroundBlur_1_487" result="effect2_dropShadow_1_487"/>
<feBlend mode="normal" in="SourceGraphic" in2="effect2_dropShadow_1_487" result="shape"/>
</filter>
<filter id="filter1_b_1_487" x="20.2225" y="42.4379" width="65.2764" height="65.2577" filterUnits="userSpaceOnUse" color-interpolation-filters="sRGB">
<feFlood flood-opacity="0" result="BackgroundImageFix"/>
<feGaussianBlur in="BackgroundImageFix" stdDeviation="5.75968"/>
<feComposite in2="SourceAlpha" operator="in" result="effect1_backgroundBlur_1_487"/>
<feBlend mode="normal" in="SourceGraphic" in2="effect1_backgroundBlur_1_487" result="shape"/>
</filter>
<filter id="filter2_b_1_487" x="20.2225" y="546.218" width="359.73" height="75.0681" filterUnits="userSpaceOnUse" color-interpolation-filters="sRGB">
<feFlood flood-opacity="0" result="BackgroundImageFix"/>
<feGaussianBlur in="BackgroundImageFix" stdDeviation="5.75968"/>
<feComposite in2="SourceAlpha" operator="in" result="effect1_backgroundBlur_1_487"/>
<feBlend mode="normal" in="SourceGraphic" in2="effect1_backgroundBlur_1_487" result="shape"/>
</filter>
<linearGradient id="paint0_linear_1_487" x1="38.642" y1="423.5" x2="376.807" y2="423.5" gradientUnits="userSpaceOnUse">
<stop stop-color="white" stop-opacity="0.35"/>
<stop offset="0.739769" stop-color="white" stop-opacity="0.6"/>
</linearGradient>
<linearGradient id="paint1_linear_1_487" x1="200" y1="-13" x2="200" y2="725" gradientUnits="userSpaceOnUse">
<stop offset="0.166007" stop-color="#FFFFFA" stop-opacity="0.8"/>
<stop offset="0.662332" stop-color="white" stop-opacity="0.2"/>
</linearGradient>
</defs>
</svg>
